<svg width="16" height="17" viewBox="0 0 16 17" fill="none" xmlns="http://www.w3.org/2000/svg">
<path fill-rule="evenodd" clip-rule="evenodd" d="M6.76604 1.53177C6.78238 1.53721 6.8056 1.54505 6.83525 1.5553C6.89452 1.57581 6.97952 1.60601 7.08659 1.64612C7.30062 1.7263 7.60347 1.8463 7.96565 2.00786C8.68819 2.33019 9.65603 2.82201 10.6282 3.499C12.5514 4.83824 14.6218 6.9986 14.6218 10.1042C14.6218 11.4619 14.2596 12.806 13.4162 13.8229C12.5579 14.8578 11.2567 15.4858 9.53324 15.4858C9.49199 15.4858 9.32664 15.4844 9.16232 15.3666C8.93314 15.2022 8.87803 14.9477 8.90257 14.7649C8.92106 14.6272 8.98018 14.5333 8.99739 14.5064C9.02219 14.4676 9.04599 14.4398 9.05832 14.426C9.08355 14.3977 9.10587 14.3778 9.11389 14.3708C9.12455 14.3614 9.13356 14.3541 9.13894 14.3498C9.15575 14.3364 9.17215 14.3247 9.17718 14.3211L9.17785 14.3206L9.22699 14.2859C9.26367 14.2599 9.31616 14.222 9.3798 14.1722C9.50815 14.0717 9.67932 13.9249 9.84929 13.7382C10.1978 13.3555 10.4874 12.8664 10.4874 12.3054C10.4874 11.2674 9.89641 10.3027 9.21947 9.55057C8.88885 9.18322 8.55647 8.88758 8.30654 8.68393C8.29105 8.67131 8.27589 8.65905 8.26109 8.64717C8.24629 8.65905 8.23113 8.67131 8.21564 8.68393C7.96571 8.88758 7.63333 9.18322 7.30271 9.55057C6.62576 10.3027 6.03482 11.2674 6.03482 12.3054C6.03482 12.8707 6.32364 13.3601 6.66979 13.7407C6.83886 13.9266 7.00922 14.0724 7.13697 14.1717C7.20031 14.2209 7.25238 14.2582 7.28787 14.2828C7.30275 14.2932 7.31432 14.3011 7.32488 14.3082L7.33251 14.3134C7.3369 14.3164 7.34728 14.3235 7.35701 14.3305C7.35991 14.3326 7.37941 14.3465 7.40086 14.3648C7.40769 14.3706 7.4197 14.3811 7.43387 14.3949C7.44397 14.4048 7.47532 14.4358 7.50781 14.4816C7.52474 14.5067 7.56206 14.5736 7.58064 14.616C7.60389 14.6867 7.62446 14.8784 7.60803 14.9961C7.55506 15.1399 7.37231 15.3574 7.25871 15.4258C7.17841 15.457 7.04198 15.4836 6.98894 15.4858C5.26546 15.4858 3.96426 14.8578 3.10597 13.8229C2.26259 12.806 1.90033 11.4618 1.90033 10.1042C1.90033 8.48213 2.46235 7.4595 3.20611 6.67939C3.5519 6.31669 3.93396 6.00971 4.27657 5.73442C4.28566 5.72712 4.29473 5.71984 4.30376 5.71258C4.66473 5.42248 4.98068 5.16606 5.25104 4.87539C5.91283 4.1639 6.0631 3.51943 6.07334 3.08108C6.07862 2.85491 6.04663 2.67154 6.01538 2.54939C5.99981 2.48852 5.98465 2.44377 5.97498 2.41765C5.97016 2.40463 5.96675 2.39638 5.96542 2.39323C5.86134 2.16557 5.90019 1.89714 6.06562 1.70865C6.23976 1.51023 6.51997 1.4505 6.76604 1.53177ZM8.6567 7.35296C8.68136 7.37013 8.71599 7.39463 8.75917 7.42616C8.84546 7.48917 8.96628 7.58051 9.11012 7.69772C9.39688 7.93137 9.78009 8.27181 10.1651 8.69955C10.9193 9.53758 11.7595 10.7991 11.7595 12.3054C11.7595 12.908 11.5753 13.4298 11.3305 13.8583C11.7875 13.6478 12.1515 13.355 12.437 13.0108C13.0418 12.2815 13.3497 11.2528 13.3497 10.1042C13.3497 7.62252 11.6991 5.7949 9.90124 4.54297C9.01291 3.92437 8.12022 3.46982 7.44737 3.16966C7.41256 3.15413 7.37836 3.13902 7.3448 3.12434C7.32469 3.85921 7.05935 4.79915 6.18253 5.74182C5.84019 6.10987 5.45283 6.42117 5.10308 6.70226L5.10068 6.70419C4.73883 6.995 4.41361 7.25646 4.12685 7.55723C3.58716 8.12329 3.17248 8.8389 3.17248 10.1042C3.17248 11.2528 3.48036 12.2815 4.08518 13.0108C4.36978 13.3539 4.73239 13.646 5.18745 13.8563C4.94467 13.4283 4.76267 12.9073 4.76267 12.3054C4.76267 10.7991 5.6029 9.53758 6.35713 8.69955C6.74209 8.27181 7.1253 7.93137 7.41206 7.69772C7.5559 7.58051 7.67672 7.48917 7.76301 7.42616C7.80619 7.39463 7.84082 7.37013 7.86548 7.35296C8.10086 7.18907 8.41955 7.18784 8.6567 7.35296Z" fill="white"/>
</svg>
