<svg width="15" height="15" viewBox="0 0 15 15" fill="none" xmlns="http://www.w3.org/2000/svg">
<path fill-rule="evenodd" clip-rule="evenodd" d="M7.51107 0.492188C7.34237 0.492188 7.18058 0.559202 7.06129 0.67849C6.94201 0.797777 6.87499 0.959566 6.87499 1.12826V7.48902C6.87499 7.84032 7.15977 8.1251 7.51107 8.1251H13.8718C14.2231 8.1251 14.5079 7.84032 14.5079 7.48902C14.5079 6.57019 14.3269 5.66035 13.9753 4.81145C13.6237 3.96255 13.1083 3.19123 12.4586 2.54151C11.8089 1.8918 11.0375 1.37641 10.1886 1.02479C9.33975 0.673166 8.42991 0.492188 7.51107 0.492188ZM8.14714 6.85295V1.79979C8.68055 1.85942 9.20399 1.9939 9.70181 2.20011C10.3964 2.4878 11.0274 2.90947 11.559 3.44106C12.0906 3.97265 12.5123 4.60373 12.8 5.29828C13.0062 5.7961 13.1407 6.31954 13.2003 6.85295H8.14714Z" fill="#8AC389"/>
<path d="M5.17873 3.32588C5.50995 3.20881 5.68355 2.8454 5.56648 2.51419C5.44941 2.18297 5.08601 2.00937 4.75479 2.12644C2.28515 2.99933 0.514233 5.35459 0.514233 8.1251C0.514233 11.638 3.36204 14.4859 6.87499 14.4859C9.6455 14.4859 12.0008 12.7149 12.8737 10.2453C12.9907 9.91408 12.8171 9.55067 12.4859 9.4336C12.1547 9.31654 11.7913 9.49014 11.6742 9.82135C10.9754 11.7986 9.08961 13.2137 6.87499 13.2137C4.06463 13.2137 1.78638 10.9355 1.78638 8.1251C1.78638 5.91048 3.20147 4.02474 5.17873 3.32588Z" fill="#8AC389"/>
</svg>
