<svg width="17" height="15" viewBox="0 0 17 15" fill="none" xmlns="http://www.w3.org/2000/svg">
<path fill-rule="evenodd" clip-rule="evenodd" d="M6.60284 0.80249C4.67072 0.80249 3.10442 2.36879 3.10442 4.30091C3.10442 6.23303 4.67072 7.79933 6.60284 7.79933C8.53497 7.79933 10.1013 6.23303 10.1013 4.30091C10.1013 2.36879 8.53497 0.80249 6.60284 0.80249ZM4.37658 4.30091C4.37658 3.07138 5.37331 2.07464 6.60284 2.07464C7.83238 2.07464 8.82911 3.07138 8.82911 4.30091C8.82911 5.53044 7.83238 6.52717 6.60284 6.52717C5.37331 6.52717 4.37658 5.53044 4.37658 4.30091Z" fill="#FE5E37"/>
<path d="M10.7373 0.80249C10.386 0.80249 10.1013 1.08727 10.1013 1.43857C10.1013 1.78986 10.386 2.07464 10.7373 2.07464C11.9669 2.07464 12.9636 3.07138 12.9636 4.30091C12.9636 5.53044 11.9669 6.52717 10.7373 6.52717C10.386 6.52717 10.1013 6.81195 10.1013 7.16325C10.1013 7.51455 10.386 7.79933 10.7373 7.79933C12.6695 7.79933 14.2358 6.23303 14.2358 4.30091C14.2358 2.36879 12.6695 0.80249 10.7373 0.80249Z" fill="#FE5E37"/>
<path d="M13.0168 9.71751C13.1575 9.3956 13.5324 9.24866 13.8544 9.38931C15.2009 9.97765 16.144 11.3219 16.144 12.8879V14.1601C16.144 14.5114 15.8592 14.7961 15.5079 14.7961C15.1566 14.7961 14.8718 14.5114 14.8718 14.1601V12.8879C14.8718 11.8456 14.2449 10.9482 13.345 10.555C13.0231 10.4144 12.8762 10.0394 13.0168 9.71751Z" fill="#FE5E37"/>
<path d="M4.69461 9.07148C2.58684 9.07148 0.878159 10.7802 0.878159 12.8879V14.1601C0.878159 14.5114 1.16294 14.7962 1.51423 14.7962C1.86553 14.7962 2.15031 14.5114 2.15031 14.1601V12.8879C2.15031 11.4828 3.28943 10.3436 4.69461 10.3436H8.51107C9.91625 10.3436 11.0554 11.4828 11.0554 12.8879V14.1601C11.0554 14.5114 11.3402 14.7962 11.6915 14.7962C12.0427 14.7962 12.3275 14.5114 12.3275 14.1601V12.8879C12.3275 10.7802 10.6188 9.07148 8.51107 9.07148H4.69461Z" fill="#FE5E37"/>
</svg>
