<svg width="15" height="13" viewBox="0 0 15 13" fill="none" xmlns="http://www.w3.org/2000/svg">
<path fill-rule="evenodd" clip-rule="evenodd" d="M7.2611 0.710693C7.47315 0.710693 7.67126 0.816364 7.78937 0.992474L10.1938 4.57751L13.1462 1.25271C13.3365 1.03843 13.6466 0.977856 13.9035 1.10476C14.1605 1.23167 14.3008 1.51472 14.2463 1.79606L12.5377 10.6148C12.3639 11.5121 11.5782 12.1601 10.6643 12.1601H3.8579C2.94397 12.1601 2.15835 11.5121 1.98451 10.6148L0.275881 1.79606C0.221372 1.51472 0.361723 1.23167 0.618662 1.10476C0.875601 0.977856 1.18568 1.03843 1.37596 1.25271L4.32845 4.57751L6.73284 0.992474C6.85095 0.816364 7.04905 0.710693 7.2611 0.710693ZM7.2611 2.48873L4.92703 5.96893C4.81738 6.13243 4.6382 6.23594 4.44179 6.24925C4.24537 6.26257 4.05387 6.18419 3.92315 6.03699L1.96646 3.83356L3.23344 10.3728C3.29139 10.6719 3.55326 10.8879 3.8579 10.8879H10.6643C10.969 10.8879 11.2308 10.6719 11.2888 10.3728L12.5558 3.83356L10.5991 6.03699C10.4683 6.18419 10.2768 6.26257 10.0804 6.24925C9.88401 6.23594 9.70483 6.13243 9.59518 5.96893L7.2611 2.48873Z" fill="#0A0A0A"/>
</svg>
